<?xml version="1.0" encoding="iso-8859-1"?>
<!-- Generator: Adobe Illustrator 19.0.0, SVG Export Plug-In . SVG Version: 6.00 Build 0)  -->
<svg version="1.1" id="Layer_1" xmlns="http://www.w3.org/2000/svg" xmlns:xlink="http://www.w3.org/1999/xlink" x="0px" y="0px"
	 viewBox="0 0 504.4 504.4" style="enable-background:new 0 0 504.4 504.4;" xml:space="preserve">
<path style="fill:#E9B526;" d="M168.8,100.6c0,0,0-20,0-28l-20.8,4c-15.2,8-36.8,12-61.6,12c-24.4,0-46.4-4-61.6-12L3.6,67.8
	c0,8,0.8,32.8,0.8,32.8c0,8,0,24,0,24c0,4,0,20,0,20c0,8,0,24,0,24c0,8,0,24,0,24c0,8,0,24,0,24c0,8,0,24,0,24c0,8,0,24,0,24
	c0,8,0,24,0,24c0,8,0,24,0,24c0,8,0,24,0,24c0,8,0,24,0,24c0,8,0,20,0,20c0,8,0,24,0,24c0,8,0,24,0,24c0,8,0,24,0,24
	c0,20,36.8,35.6,82.4,35.6c45.6,0,82-15.6,82-35.6c0,0-0.4-16-0.4-24c0,0,0-16,0-24c0,0,0-16,0-24c0,0,0-12,0-20c0,0,0-16,0-24
	c0,0,0-16,0-24c0,0,0-16,0-24c0,0,0-16,0-24c0,0,0-16,0-24c0,0,0-16,0-24c0,0,0-16,0-24c0,0,0-16,0-24c0,0,0-16,0-24c0,0,0-16,0-20
	C168.8,124.6,168.8,108.6,168.8,100.6z"/>
<path style="fill:#F0C960;" d="M86.8,15.8C41.2,15.8,4,31.8,4,51.4c0,9.2,8,16,21.2,23.6c15.2,8,37.2,12,61.6,12
	c24.4,0,46.4-4,61.6-12c13.2-8,21.2-14.8,21.2-24C169.6,31.8,132.4,15.8,86.8,15.8z"/>
<path style="fill:#E9B526;" d="M501.6,76.6l-9.2-8.8c-15.2,8-50,20.4-74.4,20.4s-58-14-73.2-22l-11.6,10c0,8,0,352,0,352
	c0,8,2,24,2,24c0,20,37.2,35.6,82.8,35.6s82.8-15.6,82.8-35.6C500,452.6,501.6,84.6,501.6,76.6z"/>
<path style="fill:#F0C960;" d="M417.6,15.8c-45.6,0-82.8,16-82.8,35.6c0,9.2,8,16,21.2,23.6c15.2,8,37.2,12,61.6,12
	c24.4,0,46.4-4,61.6-12c13.2-8,21.2-14.8,21.2-24C500.4,31.8,463.2,15.8,417.6,15.8z"/>
<path d="M86.8,161.8C38.4,161.8,0,144.6,0,122.2c0-2.4,1.6-4,4-4s4,1.6,4,4c0,15.2,31.6,31.6,78.8,31.6s78.8-16.4,78.8-31.6
	c0-2.4,1.6-4,4-4s4,1.6,4,4C173.2,144.2,135.2,161.8,86.8,161.8z"/>
<path d="M86.8,185.4C38.4,185.4,0,168.2,0,145.8c0-2.4,1.6-4,4-4s4,1.6,4,4c0,15.2,31.6,31.6,78.8,31.6s78.8-16.4,78.8-31.6
	c0-2.4,1.6-4,4-4s4,1.6,4,4C173.2,168.2,135.2,185.4,86.8,185.4z"/>
<path d="M86.8,209C38.4,209,0,191.8,0,169.4c0-2.4,1.6-4,4-4s4,1.6,4,4C8,184.6,39.6,201,86.8,201s78.8-16.4,78.8-31.6
	c0-2.4,1.6-4,4-4s4,1.6,4,4C173.2,191.8,135.2,209,86.8,209z"/>
<path d="M86.8,114.6C38.4,114.6,0,97.4,0,75c0-2.4,1.6-4,4-4s4,1.6,4,4c0,15.2,31.6,31.6,78.8,31.6s78.8-16.4,78.8-31.6
	c0-2.4,1.6-4,4-4s4,1.6,4,4C173.2,97,135.2,114.6,86.8,114.6z"/>
<path d="M86.8,138.2C38.4,138.2,0,121,0,98.6c0-2.4,1.6-4,4-4s4,1.6,4,4c0,15.2,31.6,31.6,78.8,31.6s78.8-16.4,78.8-31.6
	c0-2.4,1.6-4,4-4s4,1.6,4,4C173.2,120.6,135.2,138.2,86.8,138.2z"/>
<path d="M86.8,232.6C38.4,232.6,0,215.4,0,193c0-2.4,1.6-4,4-4s4,1.6,4,4c0,15.2,31.6,31.6,78.8,31.6s78.8-16.4,78.8-31.6
	c0-2.4,1.6-4,4-4s4,1.6,4,4C173.2,215.4,135.2,232.6,86.8,232.6z"/>
<path d="M86.8,256.2C38.4,256.2,0,239,0,216.6c0-2.4,1.6-4,4-4s4,1.6,4,4c0,15.2,31.6,31.6,78.8,31.6s78.8-16.4,78.8-31.6
	c0-2.4,1.6-4,4-4s4,1.6,4,4C173.2,239,135.2,256.2,86.8,256.2z"/>
<path d="M86.8,279.8C38.4,279.8,0,262.6,0,240.2c0-2.4,1.6-4,4-4s4,1.6,4,4c0,15.2,31.6,31.6,78.8,31.6s78.8-16.4,78.8-31.6
	c0-2.4,1.6-4,4-4s4,1.6,4,4C173.2,262.6,135.2,279.8,86.8,279.8z"/>
<path d="M86.8,303.4C38.4,303.4,0,286.2,0,263.8c0-2.4,1.6-4,4-4s4,1.6,4,4c0,15.2,31.6,31.6,78.8,31.6s78.8-16.4,78.8-31.6
	c0-2.4,1.6-4,4-4s4,1.6,4,4C173.2,286.2,135.2,303.4,86.8,303.4z"/>
<path d="M86.8,327C38.4,327,0,309.8,0,287.4c0-2.4,1.6-4,4-4s4,1.6,4,4C8,302.6,39.6,319,86.8,319s78.8-16.4,78.8-31.6
	c0-2.4,1.6-4,4-4s4,1.6,4,4C173.2,309.8,135.2,327,86.8,327z"/>
<path d="M86.8,350.6C38.4,350.6,0,333.4,0,311c0-2.4,1.6-4,4-4s4,1.6,4,4c0,15.2,31.6,31.6,78.8,31.6s78.8-16.4,78.8-31.6
	c0-2.4,1.6-4,4-4s4,1.6,4,4C173.2,333.4,135.2,350.6,86.8,350.6z"/>
<path d="M86.8,374.6C38.4,374.6,0,357.4,0,335c0-2.4,1.6-4,4-4s4,1.6,4,4c0,15.2,31.6,31.6,78.8,31.6s78.8-16.4,78.8-31.6
	c0-2.4,1.6-4,4-4s4,1.6,4,4C173.2,357,135.2,374.6,86.8,374.6z"/>
<path d="M86.8,398.2C38.4,398.2,0,381,0,358.6c0-2.4,1.6-4,4-4s4,1.6,4,4c0,15.2,31.6,31.6,78.8,31.6s78.8-16.4,78.8-31.6
	c0-2.4,1.6-4,4-4s4,1.6,4,4C173.2,380.6,135.2,398.2,86.8,398.2z"/>
<path d="M86.8,421.8C38.4,421.8,0,404.6,0,382.2c0-2.4,1.6-4,4-4s4,1.6,4,4c0,15.2,31.6,31.6,78.8,31.6s78.8-16.4,78.8-31.6
	c0-2.4,1.6-4,4-4s4,1.6,4,4C173.2,404.2,135.2,421.8,86.8,421.8z"/>
<path d="M86.8,445.4C38.4,445.4,0,428.2,0,405.8c0-2.4,1.6-4,4-4s4,1.6,4,4c0,15.2,31.6,31.6,78.8,31.6s78.8-16.4,78.8-31.6
	c0-2.4,1.6-4,4-4s4,1.6,4,4C173.2,427.8,135.2,445.4,86.8,445.4z"/>
<path d="M86.8,469C38.4,469,0,451.8,0,429.4c0-2.4,1.6-4,4-4s4,1.6,4,4C8,444.6,39.6,461,86.8,461s78.8-16.4,78.8-31.6
	c0-2.4,1.6-4,4-4s4,1.6,4,4C173.2,451.4,135.2,469,86.8,469z"/>
<path d="M86.8,492.6C38.4,492.6,0,475.4,0,453c0-2.4,1.6-4,4-4s4,1.6,4,4c0,15.2,31.6,31.6,78.8,31.6s78.8-16.4,78.8-31.6
	c0-2.4,1.6-4,4-4s4,1.6,4,4C173.2,475,135.2,492.6,86.8,492.6z"/>
<path d="M86.8,91C38.4,91,0,73.8,0,51.4s38-39.6,86.8-39.6c48.4,0,86.8,17.2,86.8,39.6S135.2,91,86.8,91z M86.8,19.8
	C39.6,19.8,8,36.2,8,51.4S39.6,83,86.8,83s78.8-16.4,78.8-31.6S133.6,19.8,86.8,19.8z"/>
<path d="M417.6,161.8c-48.4,0-86.8-17.2-86.8-39.6c0-2.4,1.6-4,4-4s4,1.6,4,4c0,15.2,31.6,31.6,78.8,31.6s78.8-16.4,78.8-31.6
	c0-2.4,1.6-4,4-4s4,1.6,4,4C504,144.2,466,161.8,417.6,161.8z"/>
<path d="M417.6,185.4c-48.4,0-86.8-17.2-86.8-39.6c0-2.4,1.6-4,4-4s4,1.6,4,4c0,15.2,31.6,31.6,78.8,31.6s78.8-16.4,78.8-31.6
	c0-2.4,1.6-4,4-4s4,1.6,4,4C504,168.2,466,185.4,417.6,185.4z"/>
<path d="M417.6,209c-48.4,0-86.8-17.2-86.8-39.6c0-2.4,1.6-4,4-4s4,1.6,4,4c0,15.2,31.6,31.6,78.8,31.6s78.8-16.4,78.8-31.6
	c0-2.4,1.6-4,4-4s4,1.6,4,4C504,191.8,466,209,417.6,209z"/>
<path d="M417.6,114.6c-48.4,0-86.8-17.2-86.8-39.6c0-2.4,1.6-4,4-4s4,1.6,4,4c0,15.2,31.6,31.6,78.8,31.6s78.8-16.4,78.8-31.6
	c0-2.4,1.6-4,4-4s4,1.6,4,4C504,97,466,114.6,417.6,114.6z"/>
<path d="M417.6,138.2c-48.4,0-86.8-17.2-86.8-39.6c0-2.4,1.6-4,4-4s4,1.6,4,4c0,15.2,31.6,31.6,78.8,31.6s78.8-16.4,78.8-31.6
	c0-2.4,1.6-4,4-4s4,1.6,4,4C504,120.6,466,138.2,417.6,138.2z"/>
<path d="M417.6,232.6c-48.4,0-86.8-17.2-86.8-39.6c0-2.4,1.6-4,4-4s4,1.6,4,4c0,15.2,31.6,31.6,78.8,31.6s78.8-16.4,78.8-31.6
	c0-2.4,1.6-4,4-4s4,1.6,4,4C504,215.4,466,232.6,417.6,232.6z"/>
<path d="M417.6,256.2c-48.4,0-86.8-17.2-86.8-39.6c0-2.4,1.6-4,4-4s4,1.6,4,4c0,15.2,31.6,31.6,78.8,31.6s78.8-16.4,78.8-31.6
	c0-2.4,1.6-4,4-4s4,1.6,4,4C504,239,466,256.2,417.6,256.2z"/>
<path d="M417.6,279.8c-48.4,0-86.8-17.2-86.8-39.6c0-2.4,1.6-4,4-4s4,1.6,4,4c0,15.2,31.6,31.6,78.8,31.6s78.8-16.4,78.8-31.6
	c0-2.4,1.6-4,4-4s4,1.6,4,4C504,262.6,466,279.8,417.6,279.8z"/>
<path d="M417.6,303.4c-48.4,0-86.8-17.2-86.8-39.6c0-2.4,1.6-4,4-4s4,1.6,4,4c0,15.2,31.6,31.6,78.8,31.6s78.8-16.4,78.8-31.6
	c0-2.4,1.6-4,4-4s4,1.6,4,4C504,286.2,466,303.4,417.6,303.4z"/>
<path d="M417.6,327c-48.4,0-86.8-17.2-86.8-39.6c0-2.4,1.6-4,4-4s4,1.6,4,4c0,15.2,31.6,31.6,78.8,31.6s78.8-16.4,78.8-31.6
	c0-2.4,1.6-4,4-4s4,1.6,4,4C504,309.8,466,327,417.6,327z"/>
<path d="M417.6,350.6c-48.4,0-86.8-17.2-86.8-39.6c0-2.4,1.6-4,4-4s4,1.6,4,4c0,15.2,31.6,31.6,78.8,31.6s78.8-16.4,78.8-31.6
	c0-2.4,1.6-4,4-4s4,1.6,4,4C504,333.4,466,350.6,417.6,350.6z"/>
<path d="M417.6,374.6c-48.4,0-86.8-17.2-86.8-39.6c0-2.4,1.6-4,4-4s4,1.6,4,4c0,15.2,31.6,31.6,78.8,31.6s78.8-16.4,78.8-31.6
	c0-2.4,1.6-4,4-4s4,1.6,4,4C504,357,466,374.6,417.6,374.6z"/>
<path d="M417.6,398.2c-48.4,0-86.8-17.2-86.8-39.6c0-2.4,1.6-4,4-4s4,1.6,4,4c0,15.2,31.6,31.6,78.8,31.6s78.8-16.4,78.8-31.6
	c0-2.4,1.6-4,4-4s4,1.6,4,4C504,380.6,466,398.2,417.6,398.2z"/>
<path d="M417.6,421.8c-48.4,0-86.8-17.2-86.8-39.6c0-2.4,1.6-4,4-4s4,1.6,4,4c0,15.2,31.6,31.6,78.8,31.6s78.8-16.4,78.8-31.6
	c0-2.4,1.6-4,4-4s4,1.6,4,4C504,404.2,466,421.8,417.6,421.8z"/>
<path d="M417.6,445.4c-48.4,0-86.8-17.2-86.8-39.6c0-2.4,1.6-4,4-4s4,1.6,4,4c0,15.2,31.6,31.6,78.8,31.6s78.8-16.4,78.8-31.6
	c0-2.4,1.6-4,4-4s4,1.6,4,4C504,427.8,466,445.4,417.6,445.4z"/>
<path d="M417.6,469c-48.4,0-86.8-17.2-86.8-39.6c0-2.4,1.6-4,4-4s4,1.6,4,4c0,15.2,31.6,31.6,78.8,31.6s78.8-16.4,78.8-31.6
	c0-2.4,1.6-4,4-4s4,1.6,4,4C504,451.4,466,469,417.6,469z"/>
<path d="M417.6,492.6c-48.4,0-86.8-17.2-86.8-39.6c0-2.4,1.6-4,4-4s4,1.6,4,4c0,15.2,31.6,31.6,78.8,31.6s78.8-16.4,78.8-31.6
	c0-2.4,1.6-4,4-4s4,1.6,4,4C504,475,466,492.6,417.6,492.6z"/>
<path d="M417.6,91c-48.4,0-86.8-17.2-86.8-39.6s38-39.6,86.8-39.6c48.4,0,86.8,17.2,86.8,39.6S466,91,417.6,91z M417.6,19.8
	c-47.2,0-78.8,16.4-78.8,31.6S370.4,83,417.6,83s78.8-16.4,78.8-31.6S464.8,19.8,417.6,19.8z"/>
<path d="M296.8,177.4h-104c-2.4,0-4-1.6-4-4s1.6-4,4-4h104c2.4,0,4,1.6,4,4S299.2,177.4,296.8,177.4z"/>
<path d="M275.6,205c-1.2,0-2-0.4-2.8-1.2c-1.6-1.6-1.6-4,0-5.6l24.8-24.8l-24.8-24.8c-1.6-1.6-1.6-4,0-5.6s4-1.6,5.6,0l27.6,27.6
	c1.6,1.6,1.6,4,0,5.6l-27.6,27.6C277.6,204.6,276.8,205,275.6,205z"/>
<path d="M308,343H200c-2.4,0-4-1.6-4-4s1.6-4,4-4h108c2.4,0,4,1.6,4,4S310.4,343,308,343z"/>
<path d="M224.8,370.6c-1.2,0-2-0.4-2.8-1.2l-27.6-27.6c-0.8-0.8-1.2-1.6-1.2-2.8s0.4-2,1.2-2.8l27.6-27.6c1.6-1.6,4-1.6,5.6,0
	s1.6,4,0,5.6L202.8,339l24.8,24.8c1.6,1.6,1.6,4,0,5.6C226.8,370.2,225.6,370.6,224.8,370.6z"/>
<g>
</g>
<g>
</g>
<g>
</g>
<g>
</g>
<g>
</g>
<g>
</g>
<g>
</g>
<g>
</g>
<g>
</g>
<g>
</g>
<g>
</g>
<g>
</g>
<g>
</g>
<g>
</g>
<g>
</g>
</svg>
